<?xml version="1.0" standalone="no"?>
<!DOCTYPE svg PUBLIC "-//W3C//DTD SVG 20010904//EN"
 "http://www.w3.org/TR/2001/REC-SVG-20010904/DTD/svg10.dtd">
<svg version="1.0" xmlns="http://www.w3.org/2000/svg"
 width="1885.000000pt" height="1885.000000pt" viewBox="0 0 1885.000000 1885.000000"
 preserveAspectRatio="xMidYMid meet">
<metadata>
Created by potrace 1.14, written by Peter Selinger 2001-2017
</metadata>
<g transform="translate(0.000000,1885.000000) scale(0.100000,-0.100000)"
fill="#000000" stroke="none">
<path d="M9428 18475 c-2 -2 -28 -6 -58 -10 -164 -19 -359 -107 -525 -234
-230 -177 -575 -619 -814 -1045 -81 -142 -126 -223 -165 -296 -48 -88 -435
-863 -479 -960 -31 -69 -153 -324 -291 -614 -42 -87 -76 -160 -76 -162 0 -8
-371 -752 -426 -854 -240 -446 -511 -817 -645 -885 -188 -96 -707 -221 -1124
-270 -33 -4 -69 -9 -80 -11 -11 -2 -45 -6 -75 -9 -30 -3 -66 -8 -80 -10 -40
-7 -130 -17 -260 -30 -30 -3 -71 -8 -90 -10 -19 -2 -62 -7 -95 -10 -125 -12
-142 -14 -205 -20 -36 -3 -81 -8 -100 -10 -19 -2 -71 -7 -115 -10 -44 -4 -87
-9 -96 -10 -9 -2 -52 -6 -95 -10 -43 -3 -95 -8 -114 -10 -19 -3 -64 -7 -100
-10 -36 -3 -81 -7 -100 -10 -19 -3 -64 -7 -100 -10 -36 -3 -81 -8 -100 -10
-51 -6 -117 -14 -180 -20 -30 -3 -77 -8 -105 -11 -27 -4 -61 -8 -75 -9 -100
-11 -138 -16 -160 -20 -14 -2 -50 -7 -80 -10 -30 -3 -82 -10 -115 -15 -33 -5
-82 -12 -110 -15 -27 -4 -61 -8 -75 -11 -14 -2 -41 -7 -60 -9 -40 -6 -253 -43
-290 -50 -14 -3 -47 -9 -75 -15 -285 -55 -596 -140 -809 -222 -79 -30 -281
-125 -321 -150 -149 -95 -167 -110 -265 -208 -241 -242 -341 -585 -270 -925 6
-27 13 -60 15 -73 26 -112 141 -355 247 -521 126 -195 398 -549 518 -672 8 -9
49 -53 90 -99 217 -241 638 -659 1121 -1112 25 -24 104 -97 174 -163 71 -66
147 -138 170 -160 24 -22 116 -110 206 -195 182 -173 535 -524 619 -615 276
-299 509 -609 557 -740 26 -70 28 -96 28 -315 0 -209 -6 -311 -29 -505 -10
-85 -15 -115 -20 -143 -3 -15 -8 -47 -11 -72 -5 -37 -36 -207 -60 -330 -3 -14
-10 -51 -15 -82 -6 -32 -13 -68 -15 -80 -3 -13 -19 -86 -36 -163 -17 -77 -32
-149 -35 -160 -22 -115 -94 -443 -174 -800 -42 -186 -78 -351 -86 -395 -3 -14
-7 -34 -9 -45 -2 -11 -11 -56 -20 -100 -9 -44 -19 -91 -21 -104 -3 -12 -11
-51 -19 -85 -7 -33 -16 -77 -19 -96 -3 -19 -8 -46 -10 -60 -3 -14 -15 -77 -26
-140 -12 -63 -26 -140 -31 -170 -6 -30 -12 -68 -14 -85 -2 -16 -9 -61 -15
-100 -7 -38 -13 -83 -15 -100 -5 -37 -12 -97 -25 -195 -5 -41 -12 -100 -14
-130 -3 -30 -8 -85 -11 -122 -4 -37 -8 -94 -11 -125 -5 -73 -5 -488 1 -528 2
-16 7 -61 10 -100 3 -38 8 -77 11 -86 3 -10 6 -30 8 -45 5 -40 34 -148 58
-219 115 -336 391 -589 732 -670 140 -34 363 -38 519 -10 15 3 37 7 50 9 12 2
40 7 62 11 204 37 693 203 959 325 33 15 113 52 176 81 140 64 676 335 820
414 58 32 122 67 143 77 21 10 119 64 218 118 99 55 181 100 183 100 2 0 50
26 107 58 57 32 138 77 179 99 41 22 95 52 120 65 84 47 155 85 255 138 55 29
141 75 190 102 190 103 637 320 790 383 316 131 571 206 679 201 125 -7 343
-77 631 -204 104 -45 386 -183 450 -220 28 -15 111 -61 185 -102 74 -40 232
-130 350 -198 118 -69 229 -132 245 -142 17 -10 197 -115 400 -235 436 -256
425 -250 495 -288 30 -17 72 -41 92 -54 21 -13 40 -23 43 -23 3 0 31 -16 61
-35 30 -19 56 -35 58 -35 2 0 35 -17 73 -38 37 -22 113 -63 168 -92 55 -29
105 -56 110 -60 37 -28 442 -226 630 -310 22 -9 56 -24 75 -33 246 -109 647
-236 830 -262 294 -43 504 -18 715 85 218 105 367 254 475 475 42 86 88 220
105 306 17 83 36 217 42 299 14 173 6 728 -12 818 -2 10 -6 52 -10 93 -3 41
-8 92 -10 114 -20 179 -24 204 -50 380 -25 171 -69 447 -91 565 -2 14 -7 40
-10 59 -3 18 -8 43 -10 55 -2 11 -9 50 -15 86 -5 36 -14 83 -19 105 -5 22 -19
92 -30 155 -11 63 -27 147 -35 185 -8 39 -17 84 -20 100 -2 17 -7 43 -11 58
-3 16 -7 38 -9 50 -4 26 -50 274 -70 372 -7 39 -17 90 -20 115 -3 25 -10 61
-15 80 -5 19 -12 55 -15 80 -4 25 -10 63 -15 85 -5 22 -11 60 -15 85 -3 25 -8
59 -12 75 -3 17 -7 39 -9 50 -1 11 -9 64 -18 118 -35 214 -53 356 -72 582 -10
112 -12 500 -4 565 14 103 17 116 44 171 98 194 432 580 802 926 65 61 137
129 160 150 52 48 191 174 319 289 55 49 112 100 126 114 14 14 50 46 80 71
30 26 66 57 80 70 14 13 41 38 60 54 19 17 75 66 124 110 49 44 105 94 124
110 18 17 39 35 45 41 6 5 56 50 111 98 55 49 107 96 116 105 9 9 34 32 55 51
280 251 604 564 814 787 137 145 131 139 380 439 9 11 55 74 102 140 244 340
356 613 363 877 1 60 -1 127 -5 150 -5 23 -11 58 -14 77 -15 96 -66 227 -128
329 -177 289 -496 487 -1068 665 -202 62 -379 106 -675 167 -55 11 -109 23
-120 25 -11 2 -36 7 -55 10 -36 5 -129 21 -165 28 -11 2 -51 9 -90 15 -38 6
-86 13 -105 16 -171 27 -221 35 -260 40 -25 3 -52 7 -60 10 -8 2 -42 6 -75 10
-33 3 -71 7 -85 10 -14 2 -43 7 -65 10 -22 3 -53 7 -70 10 -16 2 -52 7 -80 10
-27 3 -61 7 -75 10 -14 2 -52 7 -85 10 -33 3 -67 8 -75 10 -8 2 -42 6 -75 10
-33 3 -73 8 -90 10 -16 2 -52 7 -80 10 -88 11 -118 15 -200 25 -44 6 -98 13
-120 16 -22 2 -51 7 -65 9 -14 2 -47 7 -75 10 -74 8 -198 25 -223 30 -11 2
-47 6 -79 10 -32 3 -65 8 -73 10 -8 2 -37 7 -65 11 -55 7 -62 8 -155 23 -36 6
-81 13 -100 15 -19 3 -51 8 -70 10 -19 3 -80 14 -135 25 -55 11 -115 23 -134
26 -52 9 -367 90 -446 115 -179 56 -313 111 -371 150 -63 44 -185 194 -279
345 -21 33 -52 83 -70 110 -17 28 -46 75 -62 105 -17 30 -50 89 -73 130 -101
180 -265 529 -515 1095 -43 97 -134 306 -210 480 -48 110 -93 214 -100 230 -7
17 -40 91 -73 165 -33 74 -74 167 -92 205 -18 39 -41 90 -52 115 -88 204 -367
756 -493 975 -130 227 -331 527 -431 645 -12 14 -43 50 -68 80 -202 236 -448
394 -692 445 -68 14 -287 29 -296 20z"/>
</g>
</svg>
